<svg xmlns="http://www.w3.org/2000/svg" viewBox="0 0 480 100" aria-label="Loan Streamline Pro">
  <defs>
    <linearGradient id="logoLightBrand" x1="0" y1="0" x2="1" y2="1">
      <stop offset="0"   stop-color="#93c5fd"/>
      <stop offset="0.5" stop-color="#60a5fa"/>
      <stop offset="1"   stop-color="#3b82f6"/>
    </linearGradient>
  </defs>

  <!-- Mark -->
  <g transform="translate(0,2)">
    <g stroke="url(#logoLightBrand)" stroke-width="4" stroke-linecap="round">
      <line x1="14" y1="40" x2="32" y2="40" opacity="0.95"/>
      <line x1="8"  y1="49" x2="36" y2="49" opacity="0.9"/>
      <line x1="2"  y1="58" x2="40" y2="58" opacity="0.85"/>
      <line x1="10" y1="67" x2="32" y2="67" opacity="0.8"/>
      <line x1="18" y1="76" x2="30" y2="76" opacity="0.7"/>
    </g>
    <g fill="none" stroke="url(#logoLightBrand)" stroke-width="4" stroke-linejoin="round" stroke-linecap="round">
      <path d="M40 36 L62 18 L84 36"/>
      <path d="M78 18 L78 28"/>
      <path d="M42 36 L42 84 L82 84 L82 36"/>
      <rect x="68" y="42" width="10" height="10"/>
      <line x1="73" y1="42" x2="73" y2="52"/>
      <line x1="68" y1="47" x2="78" y2="47"/>
    </g>
    <g>
      <rect x="46" y="48" width="32" height="36" rx="3" fill="#0f172a" stroke="url(#logoLightBrand)" stroke-width="3.6"/>
      <g stroke="url(#logoLightBrand)" stroke-width="3.2" stroke-linecap="round" stroke-linejoin="round" fill="none">
        <path d="M51 58 L54 61 L60 55"/><line x1="63" y1="58" x2="73" y2="58"/>
        <path d="M51 67 L54 70 L60 64"/><line x1="63" y1="67" x2="73" y2="67"/>
        <path d="M51 76 L54 79 L60 73"/><line x1="63" y1="76" x2="73" y2="76"/>
      </g>
    </g>
  </g>

  <!-- Wordmark (white for dark footer) -->
  <g font-family="Inter, 'Helvetica Neue', Arial, sans-serif">
    <text x="108" y="56" font-size="38" font-weight="800" fill="#ffffff">Loan</text>
    <text x="200" y="56" font-size="38" font-weight="800" fill="#60a5fa">Streamline</text>
    <text x="410" y="56" font-size="38" font-weight="800" fill="#ffffff">Pro</text>

    <g transform="translate(108,76)">
      <line x1="0"   y1="3" x2="22" y2="3" stroke="#60a5fa" stroke-width="2" stroke-linecap="round"/>
      <text x="30"   y="8" font-size="11" font-weight="700" fill="#93c5fd" letter-spacing="3">STREAMLINE TODAY. CLOSE TOMORROW.</text>
      <line x1="338" y1="3" x2="360" y2="3" stroke="#60a5fa" stroke-width="2" stroke-linecap="round"/>
    </g>
  </g>
</svg>
