<svg xmlns="http://www.w3.org/2000/svg" viewBox="0 9 478 90" aria-label="Loan Streamline Pro">
  <defs>
    <linearGradient id="logoLightBrand" x1="0" y1="0" x2="1" y2="1">
      <stop offset="0"   stop-color="#93c5fd"/>
      <stop offset="0.5" stop-color="#60a5fa"/>
      <stop offset="1"   stop-color="#3b82f6"/>
    </linearGradient>
  </defs>

  <!-- Mark -->
  <g transform="translate(0,2)">
    <g stroke="url(#logoLightBrand)" stroke-width="4" stroke-linecap="round">
      <line x1="14" y1="40" x2="32" y2="40" opacity="0.95"/>
      <line x1="8"  y1="49" x2="36" y2="49" opacity="0.9"/>
      <line x1="2"  y1="58" x2="40" y2="58" opacity="0.85"/>
      <line x1="10" y1="67" x2="32" y2="67" opacity="0.8"/>
      <line x1="18" y1="76" x2="30" y2="76" opacity="0.7"/>
    </g>
    <g fill="none" stroke="url(#logoLightBrand)" stroke-width="4" stroke-linejoin="round" stroke-linecap="round">
      <path d="M35.6 37.9 L62 21.4 L88.4 37.9"/>
      <path d="M81.2 21.4 L81.2 30.6"/>
      <path d="M38 37.9 L38 82.1 L86 82.1 L86 37.9"/>
      <rect x="69.2" y="43.4" width="12" height="9.2"/>
      <line x1="75.2" y1="43.4" x2="75.2" y2="52.6"/>
      <line x1="69.2" y1="48" x2="81.2" y2="48"/>
    </g>
    <g>
      <rect x="42.8" y="49" width="38.4" height="33.1" rx="3" fill="#0f172a" stroke="url(#logoLightBrand)" stroke-width="3.6"/>
      <g stroke="url(#logoLightBrand)" stroke-width="3.2" stroke-linecap="round" stroke-linejoin="round" fill="none">
        <path d="M48.8 58.2 L52.4 60.9 L59.6 55.4"/><line x1="63.2" y1="58.2" x2="75.2" y2="58.2"/>
        <path d="M48.8 66.4 L52.4 69.2 L59.6 63.7"/><line x1="63.2" y1="66.4" x2="75.2" y2="66.4"/>
        <path d="M48.8 74.7 L52.4 77.5 L59.6 72"/><line x1="63.2" y1="74.7" x2="75.2" y2="74.7"/>
      </g>
    </g>
  </g>

  <!-- Wordmark (white for dark footer) -->
  <g font-family="Inter, 'Helvetica Neue', Arial, sans-serif">
    <text x="108" y="66" font-size="38" font-weight="800" textLength="362" lengthAdjust="spacing"><tspan fill="#ffffff">Loan</tspan> <tspan fill="#60a5fa">Streamline</tspan> <tspan fill="#ffffff">Pro</tspan></text>
  </g>
</svg>
